# xmcd CD database file
#
# Track frame offsets:
#	150
#	18492
#	30650
#	60267
#
# Disc length: 1146 seconds
#
# Revision: 0
# Processed by: cddbd v1.5PL3 Copyright (c) Steve Scherf et al.
# Submitted via: CDex 1.51
#
DISCID=25047804
DTITLE=Galla - シグナル
DYEAR=1998
DGENRE=JPop
TTITLE0=シグナル
TTITLE1=未来少年
TTITLE2=シグナル (instrumental)
TTITLE3=CD-EXTRA
EXTD=YEAR: 1998
EXTT0=
EXTT1=
EXTT2=
EXTT3=
PLAYORDER=
